<svg width="73" height="64" viewBox="0 0 73 64" fill="none" xmlns="http://www.w3.org/2000/svg">
<path d="M62.0393 25.4075C60.2574 21.2226 57.4754 17.5391 53.9376 14.6804C50.3998 11.8216 46.2143 9.87507 41.7486 9.01153L45.7827 2.5571L41.6913 0L36.3683 8.51685C30.9461 8.542 25.6502 10.1551 21.1347 13.1569C16.6193 16.1587 13.0822 20.4176 10.9605 25.4075C8.11854 25.4615 5.4112 26.6284 3.42045 28.6573C1.42969 30.6863 0.314453 33.4153 0.314453 36.2578C0.314453 39.1003 1.42969 41.8293 3.42045 43.8583C5.4112 45.8872 8.11854 47.0541 10.9605 47.1082C13.0912 52.1185 16.6486 56.3914 21.1898 59.395C25.731 62.3985 31.0553 64 36.4999 64C41.9445 64 47.2688 62.3985 51.81 59.395C56.3511 56.3914 59.9085 52.1185 62.0393 47.1082C64.8812 47.0541 67.5886 45.8872 69.5793 43.8583C71.5701 41.8293 72.6853 39.1003 72.6853 36.2578C72.6853 33.4153 71.5701 30.6863 69.5793 28.6573C67.5886 26.6284 64.8812 25.4615 62.0393 25.4075ZM66.133 40.4809C65.0296 41.6095 63.5257 42.2575 61.9476 42.2843L58.8228 42.3437L57.5996 45.2196C55.8396 49.3593 52.9008 52.8898 49.149 55.3715C45.3972 57.8532 40.9983 59.1765 36.5 59.1765C32.0017 59.1765 27.6027 57.8532 23.851 55.3715C20.0992 52.8898 17.1603 49.3593 15.4003 45.2196L14.177 42.3437L11.0522 42.2843C9.47338 42.2548 7.96922 41.6069 6.86314 40.4799C5.75706 39.3529 5.13739 37.8369 5.13739 36.2578C5.13739 34.6787 5.75706 33.1627 6.86314 32.0357C7.96922 30.9087 9.47338 30.2608 11.0522 30.2313L14.177 30.1719L15.4003 27.296C17.1604 23.1564 20.0992 19.6259 23.851 17.1443C27.6028 14.6626 32.0017 13.3394 36.5 13.3394C40.9982 13.3394 45.3971 14.6626 49.1489 17.1443C52.9007 19.6259 55.8396 23.1564 57.5996 27.296L58.8228 30.1719L61.9476 30.2313C63.1252 30.2535 64.2704 30.6203 65.2418 31.2863C66.2132 31.9523 66.9682 32.8883 67.4134 33.9787C67.8587 35.0691 67.9747 36.266 67.7471 37.4216C67.5196 38.5772 66.9584 39.6408 66.133 40.4809Z" fill="#B8A1E6"/>
<path d="M29.2628 30.2266H23.2319V36.2575H29.2628V30.2266Z" fill="#B8A1E6"/>
<path d="M49.7677 30.2266H43.7368V36.2575H49.7677V30.2266Z" fill="#B8A1E6"/>
<path d="M36.5003 53.1443C38.0843 53.1443 39.6527 52.8323 41.1161 52.2262C42.5795 51.62 43.9092 50.7316 45.0293 49.6115C46.1493 48.4915 47.0378 47.1618 47.6439 45.6984C48.2501 44.235 48.5621 42.6665 48.5621 41.0825H24.4385C24.4385 42.6665 24.7505 44.235 25.3566 45.6984C25.9628 47.1618 26.8513 48.4915 27.9713 49.6115C30.2333 51.8735 33.3013 53.1443 36.5003 53.1443Z" fill="#B8A1E6"/>
</svg>
