<svg width="33" height="32" viewBox="0 0 33 32" fill="none" xmlns="http://www.w3.org/2000/svg">
<g clip-path="url(#clip0_623_6072)">
<path d="M31.59 13.116C31.7766 14.1899 31.8696 15.278 31.868 16.368C31.868 21.236 30.128 25.352 27.1 28.138H27.104C24.456 30.584 20.816 32 16.5 32C12.2565 32 8.18687 30.3142 5.18629 27.3137C2.18571 24.3131 0.5 20.2434 0.5 16C0.5 11.7565 2.18571 7.68683 5.18629 4.68625C8.18687 1.68567 12.2565 -4.28596e-05 16.5 -4.28596e-05C20.4719 -0.0465596 24.3077 1.44562 27.204 4.16396L22.636 8.73196C20.9848 7.15791 18.781 6.29594 16.5 6.33196C12.326 6.33196 8.78 9.14796 7.516 12.94C6.84581 14.927 6.84581 17.0789 7.516 19.066H7.522C8.792 22.852 12.332 25.668 16.506 25.668C18.662 25.668 20.514 25.116 21.95 24.14H21.944C22.7778 23.5876 23.4911 22.872 24.0407 22.0363C24.5903 21.2007 24.965 20.2624 25.142 19.278H16.5V13.118H31.59V13.116Z" fill="white"/>
</g>
<defs>
<clipPath id="clip0_623_6072">
<rect width="32" height="32" fill="white" transform="translate(0.5)"/>
</clipPath>
</defs>
</svg>
