<svg width="69" height="70" viewBox="0 0 69 70" fill="none" xmlns="http://www.w3.org/2000/svg">
<path d="M40.1514 24.5975L40.1833 24.562" stroke="#B8A1E6" stroke-width="4.5367" stroke-linecap="round" stroke-linejoin="round"/>
<path d="M20.9365 21.3949L20.9685 21.3594" stroke="#B8A1E6" stroke-width="4.5367" stroke-linecap="round" stroke-linejoin="round"/>
<path d="M20.9365 40.6097L20.9685 40.5742" stroke="#B8A1E6" stroke-width="4.5367" stroke-linecap="round" stroke-linejoin="round"/>
<path d="M14.5318 56.5901L2.47859 5.36377C2.14108 3.92932 3.47741 2.66448 4.89117 3.08029L56.1639 18.1605" stroke="#B8A1E6" stroke-width="4.5367"/>
<path d="M66.4053 22.7232C67.156 19.7204 65.3302 16.6776 62.3276 15.927C59.3246 15.1763 56.282 17.0019 55.5313 20.0047C54.2763 25.0242 49.4434 32.9692 41.9939 40.4188C34.625 47.7877 25.5071 53.8496 16.4748 55.9341C13.4588 56.63 11.5782 59.639 12.2742 62.6548C12.9701 65.6709 15.9792 67.5514 18.9951 66.8555C30.7792 64.1363 41.6765 56.5874 49.9196 48.3446C58.0818 40.1821 64.4576 30.5136 66.4053 22.7232Z" stroke="#B8A1E6" stroke-width="4.5367" stroke-linecap="round"/>
</svg>
