<svg width="71" height="70" viewBox="0 0 71 70" fill="none" xmlns="http://www.w3.org/2000/svg">
<path d="M19.5001 41.4001C23.0347 41.4001 25.9001 38.5348 25.9001 35.0001C25.9001 31.4654 23.0347 28.6001 19.5001 28.6001C15.9655 28.6001 13.1001 31.4654 13.1001 35.0001C13.1001 38.5348 15.9655 41.4001 19.5001 41.4001Z" stroke="#B8A1E6" stroke-width="5.31369" stroke-linecap="round" stroke-linejoin="round"/>
<path d="M51.5001 41.4001C55.0348 41.4001 57.9001 38.5348 57.9001 35.0001C57.9001 31.4654 55.0348 28.6001 51.5001 28.6001C47.9654 28.6001 45.1001 31.4654 45.1001 35.0001C45.1001 38.5348 47.9654 41.4001 51.5001 41.4001Z" stroke="#B8A1E6" stroke-width="5.31369" stroke-linecap="round" stroke-linejoin="round"/>
<path d="M35.5001 25.4001C39.0348 25.4001 41.9001 22.5347 41.9001 19.0001C41.9001 15.4655 39.0348 12.6001 35.5001 12.6001C31.9654 12.6001 29.1001 15.4655 29.1001 19.0001C29.1001 22.5347 31.9654 25.4001 35.5001 25.4001Z" stroke="#B8A1E6" stroke-width="5.31369" stroke-linecap="round" stroke-linejoin="round"/>
<path d="M35.5001 57.4001C39.0348 57.4001 41.9001 54.5348 41.9001 51.0001C41.9001 47.4654 39.0348 44.6001 35.5001 44.6001C31.9654 44.6001 29.1001 47.4654 29.1001 51.0001C29.1001 54.5348 31.9654 57.4001 35.5001 57.4001Z" stroke="#B8A1E6" stroke-width="5.31369" stroke-linecap="round" stroke-linejoin="round"/>
<path d="M3.5 35C3.5 52.673 17.8269 67 35.5 67C53.173 67 67.5 52.673 67.5 35C67.5 17.3269 53.173 3 35.5 3C17.8269 3 3.5 17.3269 3.5 35ZM3.5 35V67" stroke="#B8A1E6" stroke-width="5.31369" stroke-linecap="round" stroke-linejoin="round"/>
</svg>
