<svg width="201" height="77" viewBox="0 0 201 77" fill="none" xmlns="http://www.w3.org/2000/svg">
<path d="M150.877 61.1602H163.343L163.82 63.5025H151.246L150.877 61.1602ZM135.93 61.1602H149.782L147.46 63.5025H133.658L135.93 61.1602Z" fill="#D91E78"/>
<path opacity="0.7" d="M151.559 65.4951H164.224L164.702 67.8352H151.928L151.559 65.4951ZM131.725 65.4951H145.484L143.16 67.8352H129.453L131.725 65.4951Z" fill="#D91E78"/>
<path opacity="0.4" d="M152.245 69.8252H165.109L165.588 72.1675H152.615L152.245 69.8252ZM127.525 69.8252H141.19L138.866 72.1675H125.254L127.525 69.8252Z" fill="#D91E78"/>
<path opacity="0.1" d="M152.931 74.1602H165.994L166.471 76.5003H153.3L152.931 74.1602ZM123.322 74.1602H136.891L134.567 76.5003H121.051L123.322 74.1602Z" fill="#D91E78"/>
<path opacity="0.1" d="M187.003 0.5H200.001L198.1 2.84011H185.197L187.003 0.5Z" fill="#D91E78"/>
<path opacity="0.3" d="M183.663 4.83203H196.486L194.585 7.17364H181.859L183.663 4.83203Z" fill="#D91E78"/>
<path opacity="0.4" d="M180.324 9.16699H192.968L191.066 11.5071H178.518L180.324 9.16699Z" fill="#D91E78"/>
<path opacity="0.5" d="M176.98 13.499H189.448L187.546 15.8399H175.176L176.98 13.499Z" fill="#D91E78"/>
<path opacity="0.6" d="M173.638 17.8311H185.929L184.028 20.1719H171.832L173.638 17.8311Z" fill="#D91E78"/>
<path opacity="0.7" d="M170.302 22.165H182.414L180.514 24.5066H168.495L170.302 22.165ZM142.574 22.165H156.082L156.404 24.5066H143.044L142.574 22.165Z" fill="#D91E78"/>
<path opacity="0.7" d="M166.962 26.499H178.898L176.998 28.8399H165.157L166.962 26.499ZM143.443 26.499H156.682L157.003 28.8399H143.912L143.443 26.499Z" fill="#D91E78"/>
<path opacity="0.8" d="M163.625 30.8311H175.384L173.481 33.1727H161.82L163.625 30.8311ZM144.312 30.8311H157.279L157.601 33.1727H144.781L144.312 30.8311Z" fill="#D91E78"/>
<path d="M160.274 35.1641H171.853L169.953 37.5045H158.469L160.274 35.1641ZM145.166 35.1641H157.864L158.187 37.5045H145.634L145.166 35.1641Z" fill="#D91E78"/>
<path d="M146.035 39.4971H168.339L166.438 41.8372H146.502L146.035 39.4971Z" fill="#D91E78"/>
<path d="M146.906 43.8301H164.826L162.925 46.1706H147.373L146.906 43.8301Z" fill="#D91E78"/>
<path d="M147.768 48.1641H161.304L160.816 48.7654L161.17 50.5045H146.27L147.9 48.823L147.768 48.1641Z" fill="#D91E78"/>
<path d="M144.341 52.4961H161.581L162.058 54.8366H142.07L144.341 52.4961Z" fill="#D91E78"/>
<path d="M140.128 56.8301H162.456L162.932 59.1713H137.857L140.128 56.8301Z" fill="#D91E78"/>
<path d="M12.2541 55.4914C7.89023 55.4914 7.32743 51.8311 8.0638 47.021C8.96434 41.1123 12.4673 32.5898 18.3257 32.5898C19.2074 32.5898 25.6232 32.5745 26.2825 32.6456L28.9662 24.5743C27.8474 24.5575 20.9461 24.5889 19.6716 24.5889C9.61776 24.5889 2.22576 34.6281 0.389089 46.6537C-1.72648 60.5108 5.25717 63.4912 9.95226 63.4912C10.1041 63.4912 16.5326 63.4863 16.6811 63.4841L19.3627 55.4218C19.0894 55.4622 12.5335 55.4914 12.2541 55.4914Z" fill="#D91E78"/>
<path d="M28.3733 35.1872L18.959 63.4912H25.0127L34.6273 35.1523L28.3733 35.1872Z" fill="#D91E78"/>
<path d="M147.809 35.1591H140.892L134.631 43.3675L133.502 35.1591H126.481L129.264 49.0863L118.814 59.8579L119.702 35.1591H113.539L97.7228 59.561L103.086 35.1591H97.4024L85.6805 52.9342L84.694 35.1591H79.2752L71.1801 57.6219C70.8203 57.6511 61.9738 57.6713 61.7722 57.6713C58.8123 57.6713 58.2578 55.3533 58.6305 52.2018C62.2344 52.2018 68.3596 52.2037 68.3596 52.2037L70.2957 46.4249C69.7317 46.4163 63.9478 46.4249 60.1945 46.4321C61.4739 43.5079 63.4851 41.0083 66.1902 41.0083C66.831 41.0083 74.5872 40.9981 75.0658 41.0494L77.2544 35.1775C76.4394 35.1662 68.0966 35.1876 67.1693 35.1876C62.9358 35.1876 59.3575 37.6434 56.8294 41.4006L58.9188 35.1644L53.2129 35.1123L47.3198 52.6163H47.2798L42.4859 35.1123L36.7537 35.1265L27.1152 63.4306H32.8497L38.8072 45.9977L38.8472 46.1531L43.7877 63.4669L49.4407 63.4549L52.9275 53.0499C52.2344 61.587 56.8965 63.4909 60.0988 63.4909C60.2074 63.4909 69.1336 63.4875 69.2434 63.486L69.2495 63.465H74.8022L80.3493 47.7612H80.5517L81.482 63.4635H84.5946L95.0989 47.7103L95.2201 47.8316L91.2361 63.4635H95.1942H96.8658H101.404L104.79 58.5572L112.735 58.5504H112.74L112.475 63.4635H115.316H118.684H122.338L130.732 55.0013L132.069 63.4635H138.912L135.974 49.0552L147.809 35.1591ZM113.1 53.1802H108.144L113.669 44.129L113.1 53.1802Z" fill="#D91E78"/>
</svg>
