<svg width="33" height="32" viewBox="0 0 33 32" fill="none" xmlns="http://www.w3.org/2000/svg">
<g clip-path="url(#clip0_623_6070)">
<path d="M0.5 24V8C0.5 6.93913 0.921427 5.92172 1.67157 5.17157C2.42172 4.42143 3.43913 4 4.5 4H28.5C29.5609 4 30.5783 4.42143 31.3284 5.17157C32.0786 5.92172 32.5 6.93913 32.5 8V24C32.5 25.0609 32.0786 26.0783 31.3284 26.8284C30.5783 27.5786 29.5609 28 28.5 28H4.5C3.43913 28 2.42172 27.5786 1.67157 26.8284C0.921427 26.0783 0.5 25.0609 0.5 24ZM14.08 10.186C13.9305 10.0795 13.7545 10.0163 13.5714 10.0032C13.3884 9.99006 13.2052 10.0276 13.042 10.1117C12.8788 10.1957 12.742 10.3231 12.6463 10.4798C12.5507 10.6365 12.5001 10.8164 12.5 11V21C12.5001 21.1836 12.5507 21.3635 12.6463 21.5202C12.742 21.6769 12.8788 21.8043 13.042 21.8883C13.2052 21.9724 13.3884 22.0099 13.5714 21.9968C13.7545 21.9837 13.9305 21.9205 14.08 21.814L21.08 16.814C21.2096 16.7215 21.3153 16.5994 21.3882 16.4578C21.4611 16.3162 21.4991 16.1593 21.4991 16C21.4991 15.8407 21.4611 15.6838 21.3882 15.5422C21.3153 15.4006 21.2096 15.2785 21.08 15.186L14.08 10.186Z" fill="white"/>
</g>
<defs>
<clipPath id="clip0_623_6070">
<rect width="32" height="32" fill="white" transform="translate(0.5)"/>
</clipPath>
</defs>
</svg>
